<?xml version="1.0" encoding="UTF-8"?>
<!DOCTYPE svg PUBLIC "-//W3C//DTD SVG 1.0//EN"
    "http://www.w3.org/Graphics/SVG/1.1/DTD/svg11.dtd">
<!--
     Cloudiversity
     (c) 2014 Cloudiversity
     (c) 2014 Adædra
-->
<svg xmlns="http://www.w3.org/2000/svg"
     xmlns:xlink="http://www.w3.org/1999/xlink"
     width="500" height="500">
    <defs>
        <linearGradient id="grad-bg" x1="0%" y1="0%" x2="0%" y2="100%">
            <stop offset="0%" style="stop-color: #456789; stop-opacity: 1" />
            <stop offset="100%" style="stop-color: #123456; stop-opacity: 1" />
        </linearGradient>
        <linearGradient id="grad-border" x1="0%" y1="0%" x2="0%" y2="100%">
            <stop offset="0%" style="stop-color: #123456; stop-opacity: 1" />
            <stop offset="50%" style="stop-color: #123456; stop-opacity: 1" />
            <stop offset="100%" style="stop-color: #456789; stop-opacity: 1" />
        </linearGradient>
        <style type="text/css">
        <![CDATA[
#cloud {
    fill: url(#grad-bg);
    stroke-width: 0;
}

#cloud-stroke {
    fill: transparent;
    stroke-width: 5;
    stroke: url(#grad-border);
}

#hat {
    fill: transparent;
    stroke: url(#grad-bg);
    stroke-width: 3;
}

#hat, #cloud-stroke {
    stroke-linejoin: round;
}
        ]]>
        </style>
    </defs>
    <path id="cloud" d="
        M 100 100 M 100 350
        M 100 350
        h 250
        C 500 350 440 170 350 205
        A 70 70 0 0 0 230 150
        A 90 90 0 0 0 100 250
        C 40 240 0 350 100 350
        Z
        M 245 205
        l 70 30
        l -35 15.0
        v 25
        a 50 50 0 0 1 -70 0
        v -25
        l -35 -15.0
        l 70 -30
        Z
        m -35 45" />
    <path id="cloud-stroke" d="
        M 100 100 M 100 350
        M 100 350
        h 250
        C 500 350 440 170 350 205
        A 70 70 0 0 0 230 150
        A 90 90 0 0 0 100 250
        C 40 240 0 350 100 350
        Z" />
    <path id="hat" d="
        M 100 100 M 100 350
        M 175 235
        l 70 30
        l 14 -6
        v 15
        l 7 -8
        l 7 2
        v -15
        l 42 -18" />
</svg>
